<mxfile host="app.diagrams.net" modified="2021-11-02T10:13:05.901Z" agent="5.0 (Windows NT 10.0; Win64; x64) AppleWebKit/537.36 (KHTML, like Gecko) Chrome/95.0.4638.54 Safari/537.36" etag="Kxo72VySgRlSC-qHwtXX" version="15.5.9" type="github">
  <diagram name="Page-1" id="74e2e168-ea6b-b213-b513-2b3c1d86103e">
    <mxGraphModel dx="1422" dy="762" grid="1" gridSize="10" guides="1" tooltips="1" connect="1" arrows="1" fold="1" page="1" pageScale="1" pageWidth="1100" pageHeight="850" background="none" math="0" shadow="0">
      <root>
        <mxCell id="0" />
        <mxCell id="1" parent="0" />
        <mxCell id="77e6c97f196da883-1" value="AI设计" style="swimlane;html=1;childLayout=stackLayout;startSize=20;rounded=0;shadow=0;labelBackgroundColor=none;strokeWidth=1;fontFamily=Verdana;fontSize=8;align=center;" parent="1" vertex="1">
          <mxGeometry x="70" y="90" width="650" height="1830" as="geometry" />
        </mxCell>
        <mxCell id="77e6c97f196da883-2" value="H5" style="swimlane;html=1;startSize=20;" parent="77e6c97f196da883-1" vertex="1">
          <mxGeometry y="20" width="160" height="1810" as="geometry" />
        </mxCell>
        <mxCell id="77e6c97f196da883-8" value="搜索小区" style="rounded=1;whiteSpace=wrap;html=1;shadow=0;labelBackgroundColor=none;strokeWidth=1;fontFamily=Verdana;fontSize=8;align=center;" parent="77e6c97f196da883-2" vertex="1">
          <mxGeometry x="20" y="65" width="100" height="60" as="geometry" />
        </mxCell>
        <mxCell id="77e6c97f196da883-9" value="展示户型列表" style="rounded=1;whiteSpace=wrap;html=1;shadow=0;labelBackgroundColor=none;strokeWidth=1;fontFamily=Verdana;fontSize=8;align=center;" parent="77e6c97f196da883-2" vertex="1">
          <mxGeometry x="20" y="155" width="100" height="60" as="geometry" />
        </mxCell>
        <mxCell id="KAlr-dvwPTxB0jeQxBI7-6" value="开始设计" style="rounded=1;whiteSpace=wrap;html=1;shadow=0;labelBackgroundColor=none;strokeWidth=1;fontFamily=Verdana;fontSize=8;align=center;" vertex="1" parent="77e6c97f196da883-2">
          <mxGeometry x="20" y="250" width="100" height="60" as="geometry" />
        </mxCell>
        <mxCell id="KAlr-dvwPTxB0jeQxBI7-72" value="轮询智能设计进度" style="rounded=1;whiteSpace=wrap;html=1;shadow=0;labelBackgroundColor=none;strokeWidth=1;fontFamily=Verdana;fontSize=8;align=center;" vertex="1" parent="77e6c97f196da883-2">
          <mxGeometry x="20" y="1040" width="100" height="60" as="geometry" />
        </mxCell>
        <mxCell id="KAlr-dvwPTxB0jeQxBI7-81" value="打开h5方案" style="rounded=1;whiteSpace=wrap;html=1;shadow=0;labelBackgroundColor=none;strokeWidth=1;fontFamily=Verdana;fontSize=8;align=center;" vertex="1" parent="77e6c97f196da883-2">
          <mxGeometry x="20" y="1150" width="100" height="60" as="geometry" />
        </mxCell>
        <mxCell id="KAlr-dvwPTxB0jeQxBI7-84" value="编辑h5方案" style="rounded=1;whiteSpace=wrap;html=1;shadow=0;labelBackgroundColor=none;strokeWidth=1;fontFamily=Verdana;fontSize=8;align=center;" vertex="1" parent="77e6c97f196da883-2">
          <mxGeometry x="20" y="1260" width="100" height="60" as="geometry" />
        </mxCell>
        <mxCell id="KAlr-dvwPTxB0jeQxBI7-91" value="新建渲染" style="rounded=1;whiteSpace=wrap;html=1;shadow=0;labelBackgroundColor=none;strokeWidth=1;fontFamily=Verdana;fontSize=8;align=center;" vertex="1" parent="77e6c97f196da883-2">
          <mxGeometry x="20" y="1370" width="100" height="60" as="geometry" />
        </mxCell>
        <mxCell id="KAlr-dvwPTxB0jeQxBI7-95" value="展示渲染" style="rounded=1;whiteSpace=wrap;html=1;shadow=0;labelBackgroundColor=none;strokeWidth=1;fontFamily=Verdana;fontSize=8;align=center;" vertex="1" parent="77e6c97f196da883-2">
          <mxGeometry x="20" y="1500" width="100" height="60" as="geometry" />
        </mxCell>
        <mxCell id="77e6c97f196da883-26" style="edgeStyle=orthogonalEdgeStyle;rounded=1;html=1;labelBackgroundColor=none;startArrow=none;startFill=0;startSize=5;endArrow=classicThin;endFill=1;endSize=5;jettySize=auto;orthogonalLoop=1;strokeWidth=1;fontFamily=Verdana;fontSize=8" parent="77e6c97f196da883-1" source="77e6c97f196da883-8" target="77e6c97f196da883-11" edge="1">
          <mxGeometry relative="1" as="geometry" />
        </mxCell>
        <mxCell id="77e6c97f196da883-27" style="edgeStyle=orthogonalEdgeStyle;rounded=1;html=1;labelBackgroundColor=none;startArrow=none;startFill=0;startSize=5;endArrow=classicThin;endFill=1;endSize=5;jettySize=auto;orthogonalLoop=1;strokeWidth=1;fontFamily=Verdana;fontSize=8;curved=1;" parent="77e6c97f196da883-1" source="77e6c97f196da883-11" target="77e6c97f196da883-9" edge="1">
          <mxGeometry relative="1" as="geometry" />
        </mxCell>
        <mxCell id="77e6c97f196da883-28" style="edgeStyle=orthogonalEdgeStyle;rounded=1;html=1;labelBackgroundColor=none;startArrow=none;startFill=0;startSize=5;endArrow=classicThin;endFill=1;endSize=5;jettySize=auto;orthogonalLoop=1;strokeWidth=1;fontFamily=Verdana;fontSize=8;entryX=0;entryY=0.5;entryDx=0;entryDy=0;" parent="77e6c97f196da883-1" source="77e6c97f196da883-9" target="KAlr-dvwPTxB0jeQxBI7-2" edge="1">
          <mxGeometry relative="1" as="geometry">
            <mxPoint x="355" y="205" as="targetPoint" />
          </mxGeometry>
        </mxCell>
        <mxCell id="77e6c97f196da883-3" value="智能设计" style="swimlane;html=1;startSize=20;" parent="77e6c97f196da883-1" vertex="1">
          <mxGeometry x="160" y="20" width="170" height="1810" as="geometry" />
        </mxCell>
        <mxCell id="KAlr-dvwPTxB0jeQxBI7-1" value="app/v2/housetype/search" style="text;html=1;align=center;verticalAlign=middle;resizable=0;points=[];autosize=1;strokeColor=none;fillColor=none;" vertex="1" parent="77e6c97f196da883-3">
          <mxGeometry x="15" y="80" width="150" height="20" as="geometry" />
        </mxCell>
        <mxCell id="KAlr-dvwPTxB0jeQxBI7-3" value="app/v2/housetype/list&lt;br&gt;" style="text;html=1;align=center;verticalAlign=middle;resizable=0;points=[];autosize=1;strokeColor=none;fillColor=none;" vertex="1" parent="77e6c97f196da883-3">
          <mxGeometry x="30" y="170" width="130" height="20" as="geometry" />
        </mxCell>
        <mxCell id="KAlr-dvwPTxB0jeQxBI7-13" value="轮询设计任务队列" style="rounded=1;whiteSpace=wrap;html=1;shadow=0;labelBackgroundColor=none;strokeWidth=1;fontFamily=Verdana;fontSize=8;align=center;" vertex="1" parent="77e6c97f196da883-3">
          <mxGeometry x="30" y="500" width="100" height="60" as="geometry" />
        </mxCell>
        <mxCell id="KAlr-dvwPTxB0jeQxBI7-15" value="app/v2/submit" style="text;html=1;align=center;verticalAlign=middle;resizable=0;points=[];autosize=1;strokeColor=none;fillColor=none;" vertex="1" parent="77e6c97f196da883-3">
          <mxGeometry x="50" y="260" width="90" height="20" as="geometry" />
        </mxCell>
        <mxCell id="KAlr-dvwPTxB0jeQxBI7-19" value="获取户型数据" style="rounded=1;whiteSpace=wrap;html=1;shadow=0;labelBackgroundColor=none;strokeWidth=1;fontFamily=Verdana;fontSize=8;align=center;" vertex="1" parent="77e6c97f196da883-3">
          <mxGeometry x="30" y="580" width="100" height="60" as="geometry" />
        </mxCell>
        <mxCell id="KAlr-dvwPTxB0jeQxBI7-49" value="获取样板间数据" style="rounded=1;whiteSpace=wrap;html=1;shadow=0;labelBackgroundColor=none;strokeWidth=1;fontFamily=Verdana;fontSize=8;align=center;" vertex="1" parent="77e6c97f196da883-3">
          <mxGeometry x="35" y="680" width="100" height="60" as="geometry" />
        </mxCell>
        <mxCell id="KAlr-dvwPTxB0jeQxBI7-62" value="上传h5方案obj" style="rounded=1;whiteSpace=wrap;html=1;shadow=0;labelBackgroundColor=none;strokeWidth=1;fontFamily=Verdana;fontSize=8;align=center;" vertex="1" parent="77e6c97f196da883-3">
          <mxGeometry x="30" y="780" width="100" height="60" as="geometry" />
        </mxCell>
        <mxCell id="KAlr-dvwPTxB0jeQxBI7-65" value="上传编辑器方案" style="rounded=1;whiteSpace=wrap;html=1;shadow=0;labelBackgroundColor=none;strokeWidth=1;fontFamily=Verdana;fontSize=8;align=center;" vertex="1" parent="77e6c97f196da883-3">
          <mxGeometry x="30" y="860" width="100" height="60" as="geometry" />
        </mxCell>
        <mxCell id="KAlr-dvwPTxB0jeQxBI7-67" value="上传h5方案数据" style="rounded=1;whiteSpace=wrap;html=1;shadow=0;labelBackgroundColor=none;strokeWidth=1;fontFamily=Verdana;fontSize=8;align=center;" vertex="1" parent="77e6c97f196da883-3">
          <mxGeometry x="30" y="930" width="100" height="60" as="geometry" />
        </mxCell>
        <mxCell id="KAlr-dvwPTxB0jeQxBI7-80" value="app/v2/flashroom/info" style="text;html=1;align=center;verticalAlign=middle;resizable=0;points=[];autosize=1;strokeColor=none;fillColor=none;" vertex="1" parent="77e6c97f196da883-3">
          <mxGeometry x="30" y="1050" width="130" height="20" as="geometry" />
        </mxCell>
        <mxCell id="KAlr-dvwPTxB0jeQxBI7-86" value="app/v2/flashroom/info" style="text;html=1;align=center;verticalAlign=middle;resizable=0;points=[];autosize=1;strokeColor=none;fillColor=none;" vertex="1" parent="77e6c97f196da883-3">
          <mxGeometry x="20" y="1270" width="130" height="20" as="geometry" />
        </mxCell>
        <mxCell id="KAlr-dvwPTxB0jeQxBI7-90" value="app/v2/flashroom/info" style="text;html=1;align=center;verticalAlign=middle;resizable=0;points=[];autosize=1;strokeColor=none;fillColor=none;" vertex="1" parent="77e6c97f196da883-3">
          <mxGeometry x="20" y="1155" width="130" height="20" as="geometry" />
        </mxCell>
        <mxCell id="KAlr-dvwPTxB0jeQxBI7-94" value="app/v2/flashroom/info" style="text;html=1;align=center;verticalAlign=middle;resizable=0;points=[];autosize=1;strokeColor=none;fillColor=none;" vertex="1" parent="77e6c97f196da883-3">
          <mxGeometry x="15" y="1380" width="130" height="20" as="geometry" />
        </mxCell>
        <mxCell id="77e6c97f196da883-4" value="渲染服务" style="swimlane;html=1;startSize=20;" parent="77e6c97f196da883-1" vertex="1">
          <mxGeometry x="330" y="20" width="160" height="1810" as="geometry" />
        </mxCell>
        <mxCell id="KAlr-dvwPTxB0jeQxBI7-21" value="app/v2/housetype/info" style="text;html=1;align=center;verticalAlign=middle;resizable=0;points=[];autosize=1;strokeColor=none;fillColor=none;" vertex="1" parent="77e6c97f196da883-4">
          <mxGeometry y="590" width="130" height="20" as="geometry" />
        </mxCell>
        <mxCell id="KAlr-dvwPTxB0jeQxBI7-54" value="app/v2/flashroom/info" style="text;html=1;align=center;verticalAlign=middle;resizable=0;points=[];autosize=1;strokeColor=none;fillColor=none;" vertex="1" parent="77e6c97f196da883-4">
          <mxGeometry x="10" y="690" width="130" height="20" as="geometry" />
        </mxCell>
        <mxCell id="KAlr-dvwPTxB0jeQxBI7-75" value="app/v2/flashroom/info" style="text;html=1;align=center;verticalAlign=middle;resizable=0;points=[];autosize=1;strokeColor=none;fillColor=none;" vertex="1" parent="77e6c97f196da883-4">
          <mxGeometry x="10" y="790" width="130" height="20" as="geometry" />
        </mxCell>
        <mxCell id="KAlr-dvwPTxB0jeQxBI7-76" value="app/v2/flashroom/info" style="text;html=1;align=center;verticalAlign=middle;resizable=0;points=[];autosize=1;strokeColor=none;fillColor=none;" vertex="1" parent="77e6c97f196da883-4">
          <mxGeometry x="15" y="860" width="130" height="20" as="geometry" />
        </mxCell>
        <mxCell id="KAlr-dvwPTxB0jeQxBI7-79" value="app/v2/flashroom/info" style="text;html=1;align=center;verticalAlign=middle;resizable=0;points=[];autosize=1;strokeColor=none;fillColor=none;" vertex="1" parent="77e6c97f196da883-4">
          <mxGeometry x="15" y="940" width="130" height="20" as="geometry" />
        </mxCell>
        <mxCell id="KAlr-dvwPTxB0jeQxBI7-99" value="app/v2/housetype/info" style="text;html=1;align=center;verticalAlign=middle;resizable=0;points=[];autosize=1;strokeColor=none;fillColor=none;" vertex="1" parent="77e6c97f196da883-4">
          <mxGeometry y="510" width="130" height="20" as="geometry" />
        </mxCell>
        <mxCell id="77e6c97f196da883-5" value="后台" style="swimlane;html=1;startSize=20;" parent="77e6c97f196da883-1" vertex="1">
          <mxGeometry x="490" y="20" width="160" height="1810" as="geometry" />
        </mxCell>
        <mxCell id="77e6c97f196da883-11" value="小区列表" style="rounded=1;whiteSpace=wrap;html=1;shadow=0;labelBackgroundColor=none;strokeWidth=1;fontFamily=Verdana;fontSize=8;align=center;" parent="77e6c97f196da883-5" vertex="1">
          <mxGeometry x="30" y="65" width="100" height="60" as="geometry" />
        </mxCell>
        <mxCell id="KAlr-dvwPTxB0jeQxBI7-2" value="户型列表" style="rounded=1;whiteSpace=wrap;html=1;shadow=0;labelBackgroundColor=none;strokeWidth=1;fontFamily=Verdana;fontSize=8;align=center;" vertex="1" parent="77e6c97f196da883-5">
          <mxGeometry x="30" y="155" width="100" height="60" as="geometry" />
        </mxCell>
        <mxCell id="KAlr-dvwPTxB0jeQxBI7-9" value="匹配样板间" style="rounded=1;whiteSpace=wrap;html=1;shadow=0;labelBackgroundColor=none;strokeWidth=1;fontFamily=Verdana;fontSize=8;align=center;" vertex="1" parent="77e6c97f196da883-5">
          <mxGeometry x="30" y="250" width="100" height="60" as="geometry" />
        </mxCell>
        <mxCell id="KAlr-dvwPTxB0jeQxBI7-11" value="新建方案" style="rounded=1;whiteSpace=wrap;html=1;shadow=0;labelBackgroundColor=none;strokeWidth=1;fontFamily=Verdana;fontSize=8;align=center;" vertex="1" parent="77e6c97f196da883-5">
          <mxGeometry x="30" y="330" width="100" height="60" as="geometry" />
        </mxCell>
        <mxCell id="KAlr-dvwPTxB0jeQxBI7-12" value="写入设计任务队列" style="rounded=1;whiteSpace=wrap;html=1;shadow=0;labelBackgroundColor=none;strokeWidth=1;fontFamily=Verdana;fontSize=8;align=center;" vertex="1" parent="77e6c97f196da883-5">
          <mxGeometry x="30" y="400" width="100" height="60" as="geometry" />
        </mxCell>
        <mxCell id="KAlr-dvwPTxB0jeQxBI7-16" value="户型数据" style="rounded=1;whiteSpace=wrap;html=1;shadow=0;labelBackgroundColor=none;strokeWidth=1;fontFamily=Verdana;fontSize=8;align=center;" vertex="1" parent="77e6c97f196da883-5">
          <mxGeometry x="40" y="580" width="100" height="60" as="geometry" />
        </mxCell>
        <mxCell id="KAlr-dvwPTxB0jeQxBI7-51" value="样板间数据" style="rounded=1;whiteSpace=wrap;html=1;shadow=0;labelBackgroundColor=none;strokeWidth=1;fontFamily=Verdana;fontSize=8;align=center;" vertex="1" parent="77e6c97f196da883-5">
          <mxGeometry x="40" y="670" width="100" height="60" as="geometry" />
        </mxCell>
        <mxCell id="KAlr-dvwPTxB0jeQxBI7-63" value="保存h5方案" style="rounded=1;whiteSpace=wrap;html=1;shadow=0;labelBackgroundColor=none;strokeWidth=1;fontFamily=Verdana;fontSize=8;align=center;" vertex="1" parent="77e6c97f196da883-5">
          <mxGeometry x="40" y="780" width="100" height="60" as="geometry" />
        </mxCell>
        <mxCell id="KAlr-dvwPTxB0jeQxBI7-66" value="保存编辑器方案" style="rounded=1;whiteSpace=wrap;html=1;shadow=0;labelBackgroundColor=none;strokeWidth=1;fontFamily=Verdana;fontSize=8;align=center;" vertex="1" parent="77e6c97f196da883-5">
          <mxGeometry x="40" y="860" width="100" height="60" as="geometry" />
        </mxCell>
        <mxCell id="KAlr-dvwPTxB0jeQxBI7-68" value="保存h5方案数据" style="rounded=1;whiteSpace=wrap;html=1;shadow=0;labelBackgroundColor=none;strokeWidth=1;fontFamily=Verdana;fontSize=8;align=center;" vertex="1" parent="77e6c97f196da883-5">
          <mxGeometry x="40" y="930" width="100" height="60" as="geometry" />
        </mxCell>
        <mxCell id="KAlr-dvwPTxB0jeQxBI7-73" value="智能设计进度" style="rounded=1;whiteSpace=wrap;html=1;shadow=0;labelBackgroundColor=none;strokeWidth=1;fontFamily=Verdana;fontSize=8;align=center;" vertex="1" parent="77e6c97f196da883-5">
          <mxGeometry x="40" y="1040" width="100" height="60" as="geometry" />
        </mxCell>
        <mxCell id="KAlr-dvwPTxB0jeQxBI7-83" value="保存h5方案" style="rounded=1;whiteSpace=wrap;html=1;shadow=0;labelBackgroundColor=none;strokeWidth=1;fontFamily=Verdana;fontSize=8;align=center;" vertex="1" parent="77e6c97f196da883-5">
          <mxGeometry x="40" y="1260" width="100" height="60" as="geometry" />
        </mxCell>
        <mxCell id="KAlr-dvwPTxB0jeQxBI7-87" value="智能设计进度" style="rounded=1;whiteSpace=wrap;html=1;shadow=0;labelBackgroundColor=none;strokeWidth=1;fontFamily=Verdana;fontSize=8;align=center;" vertex="1" parent="77e6c97f196da883-5">
          <mxGeometry x="40" y="1150" width="100" height="60" as="geometry" />
        </mxCell>
        <mxCell id="KAlr-dvwPTxB0jeQxBI7-92" value="新建渲染任务" style="rounded=1;whiteSpace=wrap;html=1;shadow=0;labelBackgroundColor=none;strokeWidth=1;fontFamily=Verdana;fontSize=8;align=center;" vertex="1" parent="77e6c97f196da883-5">
          <mxGeometry x="30" y="1370" width="100" height="60" as="geometry" />
        </mxCell>
        <mxCell id="KAlr-dvwPTxB0jeQxBI7-96" value="任务队列" style="rounded=1;whiteSpace=wrap;html=1;shadow=0;labelBackgroundColor=none;strokeWidth=1;fontFamily=Verdana;fontSize=8;align=center;" vertex="1" parent="77e6c97f196da883-5">
          <mxGeometry x="30" y="500" width="100" height="60" as="geometry" />
        </mxCell>
        <mxCell id="KAlr-dvwPTxB0jeQxBI7-7" style="rounded=0;orthogonalLoop=1;jettySize=auto;html=1;entryX=0.5;entryY=0;entryDx=0;entryDy=0;edgeStyle=orthogonalEdgeStyle;curved=1;" edge="1" parent="77e6c97f196da883-1" source="KAlr-dvwPTxB0jeQxBI7-2" target="KAlr-dvwPTxB0jeQxBI7-6">
          <mxGeometry relative="1" as="geometry" />
        </mxCell>
        <mxCell id="KAlr-dvwPTxB0jeQxBI7-10" style="edgeStyle=orthogonalEdgeStyle;curved=1;rounded=0;orthogonalLoop=1;jettySize=auto;html=1;" edge="1" parent="77e6c97f196da883-1" source="KAlr-dvwPTxB0jeQxBI7-6" target="KAlr-dvwPTxB0jeQxBI7-9">
          <mxGeometry relative="1" as="geometry" />
        </mxCell>
        <mxCell id="KAlr-dvwPTxB0jeQxBI7-14" style="edgeStyle=orthogonalEdgeStyle;curved=1;rounded=0;orthogonalLoop=1;jettySize=auto;html=1;entryX=0.5;entryY=0;entryDx=0;entryDy=0;exitX=0.5;exitY=1;exitDx=0;exitDy=0;" edge="1" parent="77e6c97f196da883-1" source="KAlr-dvwPTxB0jeQxBI7-12" target="KAlr-dvwPTxB0jeQxBI7-13">
          <mxGeometry relative="1" as="geometry" />
        </mxCell>
        <mxCell id="KAlr-dvwPTxB0jeQxBI7-17" style="edgeStyle=orthogonalEdgeStyle;curved=1;rounded=0;orthogonalLoop=1;jettySize=auto;html=1;entryX=0;entryY=0.5;entryDx=0;entryDy=0;exitX=1;exitY=0.5;exitDx=0;exitDy=0;" edge="1" parent="77e6c97f196da883-1" source="KAlr-dvwPTxB0jeQxBI7-19" target="KAlr-dvwPTxB0jeQxBI7-16">
          <mxGeometry relative="1" as="geometry" />
        </mxCell>
        <mxCell id="KAlr-dvwPTxB0jeQxBI7-50" style="edgeStyle=orthogonalEdgeStyle;curved=1;rounded=0;orthogonalLoop=1;jettySize=auto;html=1;exitX=0.5;exitY=1;exitDx=0;exitDy=0;" edge="1" parent="77e6c97f196da883-1" source="KAlr-dvwPTxB0jeQxBI7-16" target="KAlr-dvwPTxB0jeQxBI7-49">
          <mxGeometry relative="1" as="geometry" />
        </mxCell>
        <mxCell id="KAlr-dvwPTxB0jeQxBI7-53" style="rounded=0;orthogonalLoop=1;jettySize=auto;html=1;entryX=0.01;entryY=0.633;entryDx=0;entryDy=0;entryPerimeter=0;" edge="1" parent="77e6c97f196da883-1" source="KAlr-dvwPTxB0jeQxBI7-49" target="KAlr-dvwPTxB0jeQxBI7-51">
          <mxGeometry relative="1" as="geometry" />
        </mxCell>
        <mxCell id="KAlr-dvwPTxB0jeQxBI7-64" style="edgeStyle=none;rounded=0;orthogonalLoop=1;jettySize=auto;html=1;entryX=0;entryY=0.5;entryDx=0;entryDy=0;" edge="1" parent="77e6c97f196da883-1" source="KAlr-dvwPTxB0jeQxBI7-62" target="KAlr-dvwPTxB0jeQxBI7-63">
          <mxGeometry relative="1" as="geometry" />
        </mxCell>
        <mxCell id="KAlr-dvwPTxB0jeQxBI7-70" style="edgeStyle=none;rounded=0;orthogonalLoop=1;jettySize=auto;html=1;entryX=0;entryY=0.5;entryDx=0;entryDy=0;" edge="1" parent="77e6c97f196da883-1" source="KAlr-dvwPTxB0jeQxBI7-65" target="KAlr-dvwPTxB0jeQxBI7-66">
          <mxGeometry relative="1" as="geometry" />
        </mxCell>
        <mxCell id="KAlr-dvwPTxB0jeQxBI7-71" style="edgeStyle=none;rounded=0;orthogonalLoop=1;jettySize=auto;html=1;entryX=0;entryY=0.5;entryDx=0;entryDy=0;" edge="1" parent="77e6c97f196da883-1" source="KAlr-dvwPTxB0jeQxBI7-67" target="KAlr-dvwPTxB0jeQxBI7-68">
          <mxGeometry relative="1" as="geometry" />
        </mxCell>
        <mxCell id="KAlr-dvwPTxB0jeQxBI7-74" style="edgeStyle=none;rounded=0;orthogonalLoop=1;jettySize=auto;html=1;" edge="1" parent="77e6c97f196da883-1" source="KAlr-dvwPTxB0jeQxBI7-72" target="KAlr-dvwPTxB0jeQxBI7-73">
          <mxGeometry relative="1" as="geometry" />
        </mxCell>
        <mxCell id="KAlr-dvwPTxB0jeQxBI7-77" style="edgeStyle=orthogonalEdgeStyle;rounded=0;orthogonalLoop=1;jettySize=auto;html=1;entryX=0.5;entryY=0;entryDx=0;entryDy=0;curved=1;exitX=0.5;exitY=1;exitDx=0;exitDy=0;" edge="1" parent="77e6c97f196da883-1" source="KAlr-dvwPTxB0jeQxBI7-51" target="KAlr-dvwPTxB0jeQxBI7-62">
          <mxGeometry relative="1" as="geometry" />
        </mxCell>
        <mxCell id="KAlr-dvwPTxB0jeQxBI7-85" style="edgeStyle=orthogonalEdgeStyle;curved=1;rounded=0;orthogonalLoop=1;jettySize=auto;html=1;entryX=0;entryY=0.5;entryDx=0;entryDy=0;" edge="1" parent="77e6c97f196da883-1" source="KAlr-dvwPTxB0jeQxBI7-84" target="KAlr-dvwPTxB0jeQxBI7-83">
          <mxGeometry relative="1" as="geometry" />
        </mxCell>
        <mxCell id="KAlr-dvwPTxB0jeQxBI7-88" style="edgeStyle=orthogonalEdgeStyle;curved=1;rounded=0;orthogonalLoop=1;jettySize=auto;html=1;" edge="1" parent="77e6c97f196da883-1" source="KAlr-dvwPTxB0jeQxBI7-81" target="KAlr-dvwPTxB0jeQxBI7-87">
          <mxGeometry relative="1" as="geometry" />
        </mxCell>
        <mxCell id="KAlr-dvwPTxB0jeQxBI7-89" style="edgeStyle=orthogonalEdgeStyle;curved=1;rounded=0;orthogonalLoop=1;jettySize=auto;html=1;entryX=0.5;entryY=0;entryDx=0;entryDy=0;" edge="1" parent="77e6c97f196da883-1" source="KAlr-dvwPTxB0jeQxBI7-87" target="KAlr-dvwPTxB0jeQxBI7-84">
          <mxGeometry relative="1" as="geometry" />
        </mxCell>
        <mxCell id="KAlr-dvwPTxB0jeQxBI7-93" style="edgeStyle=orthogonalEdgeStyle;curved=1;rounded=0;orthogonalLoop=1;jettySize=auto;html=1;entryX=0;entryY=0.5;entryDx=0;entryDy=0;" edge="1" parent="77e6c97f196da883-1" source="KAlr-dvwPTxB0jeQxBI7-91" target="KAlr-dvwPTxB0jeQxBI7-92">
          <mxGeometry relative="1" as="geometry" />
        </mxCell>
        <mxCell id="KAlr-dvwPTxB0jeQxBI7-97" style="edgeStyle=orthogonalEdgeStyle;curved=1;rounded=0;orthogonalLoop=1;jettySize=auto;html=1;entryX=0;entryY=0.5;entryDx=0;entryDy=0;fontColor=#FF0000;" edge="1" parent="77e6c97f196da883-1" source="KAlr-dvwPTxB0jeQxBI7-13" target="KAlr-dvwPTxB0jeQxBI7-96">
          <mxGeometry relative="1" as="geometry" />
        </mxCell>
        <mxCell id="KAlr-dvwPTxB0jeQxBI7-98" style="edgeStyle=orthogonalEdgeStyle;curved=1;rounded=0;orthogonalLoop=1;jettySize=auto;html=1;entryX=0.5;entryY=0;entryDx=0;entryDy=0;fontColor=#FF0000;" edge="1" parent="77e6c97f196da883-1" source="KAlr-dvwPTxB0jeQxBI7-96" target="KAlr-dvwPTxB0jeQxBI7-19">
          <mxGeometry relative="1" as="geometry" />
        </mxCell>
      </root>
    </mxGraphModel>
  </diagram>
</mxfile>
